# xmcd
#
# Track frame offsets: 
#        150
#        20289
#        34136
#        46110
#        115815
#        165582
#        197150
#
# Disc length: 2944 seconds
#
# Revision: 0
# Processed by: cddbd v1.4PL0 Copyright (c) Steve Scherf et al.
# Submitted via: ExactAudioCopy v0.90a11
#
DISCID=4f0b7e07
DTITLE=Various Artist - live at bill graham`s fillmore west
DYEAR=1900
DGENRE=
TTITLE0=it takes time
TTITLE1=oh mama
TTITLE2=love got me
TTITLE3=blues on the westside
TTITLE4=one more mile to go
TTITLE5=it`s about time
TTITLE6=carmelita skiffle
EXTD=
EXTT0=
EXTT1=
EXTT2=
EXTT3=
EXTT4=
EXTT5=
EXTT6=
PLAYORDER=
